<?xml version="1.0"?>
<svg xmlns="http://www.w3.org/2000/svg" height="512px" viewBox="-64 0 496 496" width="512px"><path d="m341.855469 228.519531c5.648437-5.992187 8.746093-13.734375 8.703125-21.917969 6.050781-5.976562 9.441406-14 9.441406-22.601562s-3.390625-16.625-9.441406-22.601562c.050781-8.503907-3.222656-16.582032-9.300782-22.65625-6.082031-6.078126-14.480468-9.199219-22.664062-9.300782-5.96875-6.050781-13.992188-9.441406-22.59375-9.441406s-16.625 3.390625-22.601562 9.441406c-8.542969.101563-16.574219 3.222656-22.65625 9.300782-6.078126 6.082031-9.351563 14.152343-9.300782 22.664062-.152344.152344-.257812.335938-.410156.496094-10.734375-.871094-22.296875-1.460938-34.277344-1.726563l20.6875-124.113281c1.925782-11.628906 11.886719-20.0625 23.671875-20.0625h76.886719v-16h-76.886719c-19.640625 0-36.234375 14.054688-39.457031 33.425781l-21.097656 126.582031c-13.207032.023438-24.847656.320313-35.144532.847657l-58.398437-74.328125c4.390625-6.421875 6.984375-14.175782 6.984375-22.527344 22.054688 0 40-17.945312 40-40v-24h-144v136h24c19.320312 0 35.480469-13.769531 39.191406-32h.808594c7.894531 0 15.214844-2.375 21.425781-6.335938l50.726563 64.566407c-38.496094 3.65625-51.457032 11.152343-54.992188 17.523437l-65.160156 81.4375v19.871094c0 78.691406 29.152344 154.089844 82.078125 212.3125l2.386719 2.625h183.078125l2.378906-2.617188c52.925781-58.222656 82.078125-133.621093 82.078125-212.3125v-19.871093zm-213.855469-204.519531c0 13.230469-10.769531 24-24 24h-5.960938l-58.664062-32h88.625zm-104 96h-8v-80.625l31.824219 58.34375c-.894531 12.425781-11.175781 22.28125-23.824219 22.28125zm40-32h-3.246094l-32.707031-59.953125 59.953125 32.707031v3.246094c0 13.230469-10.769531 24-24 24zm25.238281 107.257812c12.570313 6.703126 41.007813 12.742188 102.761719 12.742188 17.136719 0 33.9375-.671875 49.03125-1.894531.152344.152343.257812.34375.410156.496093-.050781 8.503907 3.222656 16.582032 9.300782 22.65625 6.082031 6.078126 14.195312 9.277344 22.65625 9.300782 5.976562 6.050781 14 9.441406 22.601562 9.441406s16.625-3.390625 22.601562-9.441406c3.253907-.039063 6.429688-.671875 9.511719-1.613282l23.640625 29.542969c-1.296875 16.472657-14.960937 29.511719-31.753906 29.511719-10.105469 0-19.433594-4.734375-25.585938-13l-6.414062-8.609375-6.414062 8.609375c-6.152344 8.265625-15.480469 13-25.585938 13s-19.433594-4.734375-25.585938-13l-6.414062-8.609375-6.414062 8.609375c-6.152344 8.265625-15.480469 13-25.585938 13s-19.433594-4.734375-25.585938-13l-6.414062-8.609375-6.414062 8.609375c-6.152344 8.265625-15.480469 13-25.585938 13s-19.433594-4.734375-25.585938-13l-6.414062-8.609375-6.414062 8.609375c-6.152344 8.265625-15.480469 13-25.585938 13-16.792969 0-30.457031-13.039062-31.753906-29.511719zm165.25-24.027343 3.816407-2.847657-.679688-4.703124c-.738281-5.105469.878906-10.0625 4.4375-13.625 3.554688-3.550782 8.539062-5.152344 13.617188-4.4375l4.703124.679687 2.847657-3.816406c6.160156-8.242188 19.378906-8.242188 25.53125 0l2.847656 3.816406 4.703125-.679687c5.113281-.738282 10.0625.878906 13.625 4.4375 3.558594 3.554687 5.175781 8.511718 4.4375 13.617187l-.679688 4.703125 3.816407 2.847656c4.121093 3.089844 6.488281 7.746094 6.488281 12.777344s-2.367188 9.6875-6.488281 12.769531l-3.816407 2.847657.679688 4.703124c.738281 5.105469-.878906 10.0625-4.4375 13.625-3.554688 3.558594-8.511719 5.191407-13.625 4.4375l-4.703125-.679687-2.847656 3.816406c-6.160157 8.242188-19.378907 8.242188-25.53125 0l-2.847657-3.816406-4.703124.679687c-5.09375.746094-10.0625-.878906-13.625-4.4375-3.558594-3.554687-5.175782-8.511718-4.4375-13.617187l.679687-4.703125-3.816406-2.847656c-4.113281-3.089844-6.480469-7.746094-6.480469-12.777344s2.367188-9.6875 6.488281-12.769531zm-21.753906 6.074219c-.460937 2.175781-.734375 4.40625-.734375 6.695312s.273438 4.519531.734375 6.695312c-9.910156.664063-20.46875 1.058594-31.277344 1.207032l2.632813-15.78125c9.894531.183594 19.535156.574218 28.644531 1.183594zm-44.855469-1.257813-2.648437 15.875c-1.832031-.019531-3.679688-.035156-5.460938-.066406l-12.089843-15.382813c6.351562-.234375 13.054687-.382812 20.199218-.425781zm-39.734375 1.449219 10.734375 13.664062c-27.191406-1.417968-46.046875-4.417968-56.046875-7.160156 8.632813-2.375 23.832031-4.9375 45.3125-6.503906zm128.289063 302.503906h-168.867188c-44.476562-50.097656-70.621094-113.183594-74.878906-179.695312 8.417969 7.261718 19.34375 11.695312 31.3125 11.695312 12.007812 0 23.265625-4.414062 32-12.359375 8.734375 7.945313 19.992188 12.359375 32 12.359375s23.265625-4.414062 32-12.359375c8.734375 7.945313 19.992188 12.359375 32 12.359375s23.265625-4.414062 32-12.359375c8.734375 7.945313 19.992188 12.359375 32 12.359375s23.265625-4.414062 32-12.359375c8.734375 7.945313 19.992188 12.359375 32 12.359375 11.96875 0 22.894531-4.433594 31.3125-11.695312-4.257812 66.511718-30.390625 129.597656-74.878906 179.695312zm0 0" fill="#FFFFFF"/><path d="m59.839844 362.289062c10.824218 36.253907 28.519531 69.496094 52.609375 98.789063l12.359375-10.15625c-22.71875-27.640625-39.425782-59-49.640625-93.210937zm0 0" fill="#FFFFFF"/><path d="m67.886719 326.640625-15.765625 2.71875c.949218 5.527344 2.0625 11.023437 3.335937 16.464844l15.574219-3.640625c-1.199219-5.144532-2.246094-10.328125-3.144531-15.542969zm0 0" fill="#FFFFFF"/><path d="m296 208c13.230469 0 24-10.769531 24-24s-10.769531-24-24-24-24 10.769531-24 24 10.769531 24 24 24zm0-32c4.40625 0 8 3.59375 8 8s-3.59375 8-8 8-8-3.59375-8-8 3.59375-8 8-8zm0 0" fill="#FFFFFF"/></svg>
